<svg xmlns="http://www.w3.org/2000/svg" width="24" height="24" viewBox="0 0 24 24" fill="none" stroke="#8B4513" stroke-width="2" stroke-linecap="round" stroke-linejoin="round">
  <path d="M19.143 4.855A9.94 9.94 0 0 0 12 2c-5.25 0-9.535 4.04-9.95 9.184A10.002 10.002 0 0 0 12 22a10.002 10.002 0 0 0 9.95-10.816A9.936 9.936 0 0 0 19.143 4.855"/>
  <path d="M3.553 14.276a3 3 0 0 1 4.193-4.193"/>
  <path d="M20.175 9.557a3 3 0 0 1-4.193 4.193"/>
  <path d="M8.855 18.838a3 3 0 0 1 6.29 0"/>
  <path d="M15.145 5.162a3 3 0 0 1-6.29 0"/>
</svg>